<?xml version="1.0" encoding="UTF-8"?>
<svg xmlns="http://www.w3.org/2000/svg" xmlns:xlink="http://www.w3.org/1999/xlink" viewBox="0 0 50 50" width="50px" height="50px">
<g id="surface125309978">
<path style=" stroke:none;fill-rule:nonzero;fill:rgb(0%,0%,0%);fill-opacity:1;" d="M 25 2 C 12.300781 2 2 12.300781 2 25 C 2 37.699219 12.300781 48 25 48 C 37.699219 48 48 37.699219 48 25 C 48 12.300781 37.699219 2 25 2 Z M 19 35 C 19 35.5 18.5 36 18 36 L 14 36 C 13.5 36 13 35.5 13 35 L 13 20 C 13 19.5 13.5 19 14 19 L 18 19 C 18.5 19 19 19.5 19 20 Z M 16 18 C 14.398438 18 13 16.601562 13 15 C 13 13.398438 14.398438 12 16 12 C 17.601562 12 19 13.398438 19 15 C 19 16.601562 17.601562 18 16 18 Z M 38 35 C 38 35.5 37.5 36 37 36 L 33 36 C 32.5 36 32 35.5 32 35 L 32 27.5 C 32 26.101562 30.898438 25 29.5 25 C 28.101562 25 27 26.101562 27 27.5 L 27 35 C 27 35.5 26.5 36 26 36 L 22 36 C 21.5 36 21 35.5 21 35 L 21 20 C 21 19.5 21.5 19 22 19 L 26 19 C 26.5 19 27 19.398438 27 20 C 28.101562 19.398438 29.199219 19 30.5 19 C 34.601562 19 38 22.398438 38 26.5 Z M 38 35 "/>
<path style=" stroke:none;fill-rule:nonzero;fill:rgb(80.000001%,80.000001%,80.000001%);fill-opacity:1;" d="M 28.835938 20.039062 L 28.835938 21.117188 L 25.648438 21.117188 L 25.648438 29.960938 L 24.34375 29.960938 L 24.34375 21.117188 L 21.164062 21.117188 L 21.164062 20.039062 Z M 28.835938 20.039062 "/>
</g>
</svg>
